<svg xmlns="http://www.w3.org/2000/svg" version="1.1" xmlns:xlink="http://www.w3.org/1999/xlink" xmlns:svgjs="http://svgjs.dev/svgjs" width="1500" height="625" viewBox="0 0 1500 625"><g transform="matrix(1,0,0,1,-0.9090909090909918,-0.4027724700014801)"><svg viewBox="0 0 396 165" data-background-color="#ffffff" preserveAspectRatio="xMidYMid meet" height="625" width="1500" xmlns="http://www.w3.org/2000/svg" xmlns:xlink="http://www.w3.org/1999/xlink"><g id="tight-bounds" transform="matrix(1,0,0,1,0.2400000000000091,0.10633193208039415)"><svg viewBox="0 0 395.52 164.7873361358392" height="164.7873361358392" width="395.52"><g><svg viewBox="0 0 397.4975999999999 165.61127281651838" height="164.7873361358392" width="395.52"><g><rect width="397.4975999999999" height="4.737430243888645" x="0" y="85.00149099325415" fill="#1e82d6" opacity="1" stroke-width="0" stroke="transparent" fill-opacity="1" class="rect-yte-0" data-fill-palette-color="primary" rx="1%" id="yte-0" data-palette-color="#1e82d6"></rect></g><g><rect width="397.4975999999999" height="4.737430243888645" x="0" y="95.9397461636986" fill="#1e82d6" opacity="1" stroke-width="0" stroke="transparent" fill-opacity="1" class="rect-yte-1" data-fill-palette-color="primary" rx="1%" id="yte-1" data-palette-color="#1e82d6"></rect></g><g transform="matrix(1,0,0,1,0.9887999999999693,113.07882626069888)"><svg viewBox="0 0 395.52 52.53244655581947" height="52.53244655581947" width="395.52"><g id="textblocktransform"><svg viewBox="0 0 395.52 52.53244655581947" height="52.53244655581947" width="395.52" id="textblock"><g><svg viewBox="0 0 395.52 52.53244655581947" height="52.53244655581947" width="395.52"><g transform="matrix(1,0,0,1,0,0)"><svg width="395.52" viewBox="1.5 -32.9 252.57 33.55" height="52.53244655581947" data-palette-color="#1e82d6"><path d="M14.9-27.25L14.9-27.25 14.7-27.25Q13.95-25.15 12.93-22.25 11.9-19.35 10.83-16.28 9.75-13.2 8.8-10.55L8.8-10.55 8.55-9.8Q8.25-8.9 7.8-7.55 7.35-6.2 6.85-4.73 6.35-3.25 5.9-1.98 5.45-0.7 5.2 0.1L5.2 0.1Q4.85 0.25 4.48 0.33 4.1 0.4 3.55 0.4L3.55 0.4Q2.75 0.4 2.13-0.03 1.5-0.45 1.5-1.4L1.5-1.4Q1.5-1.85 1.65-2.33 1.8-2.8 2-3.35L2-3.35Q2.6-5.05 3.48-7.5 4.35-9.95 5.4-12.85 6.45-15.75 7.6-18.8 8.75-21.85 9.85-24.75 10.95-27.65 11.9-30.05L11.9-30.05Q12.3-30.25 13.1-30.45 13.9-30.65 14.75-30.65L14.75-30.65Q15.75-30.65 16.68-30.35 17.6-30.05 17.85-29.35L17.85-29.35Q19.05-26.45 20.43-22.78 21.8-19.1 23.2-15.13 24.6-11.15 25.88-7.4 27.15-3.65 28.15-0.6L28.15-0.6Q27.8-0.15 27.23 0.13 26.65 0.4 25.95 0.4L25.95 0.4Q25 0.4 24.5-0.03 24-0.45 23.65-1.45L23.65-1.45 20.9-9.6 20.5-11Q19.5-14.05 18.43-17.15 17.35-20.25 16.43-22.9 15.5-25.55 14.9-27.25ZM22.65-8.1L6.6-8.1 7.9-11.45 21.85-11.45 22.65-8.1ZM34.1-1.6L34.1-18.15 38.15-18.15 38.15-0.1Q37.9 0 37.4 0.13 36.9 0.25 36.3 0.25L36.3 0.25Q35.2 0.25 34.65-0.2 34.1-0.65 34.1-1.6L34.1-1.6ZM38.15-28.8L38.15-14.8 34.1-14.8 34.1-30.3Q34.35-30.4 34.87-30.53 35.4-30.65 36-30.65L36-30.65Q37.1-30.65 37.62-30.23 38.15-29.8 38.15-28.8L38.15-28.8ZM57.19-1.6L57.19-18.15 61.24-18.15 61.24-0.1Q60.99 0 60.49 0.13 59.99 0.25 59.39 0.25L59.39 0.25Q58.29 0.25 57.74-0.2 57.19-0.65 57.19-1.6L57.19-1.6ZM61.24-28.8L61.24-14.8 57.19-14.8 57.19-30.3Q57.44-30.4 57.97-30.53 58.49-30.65 59.09-30.65L59.09-30.65Q60.19-30.65 60.72-30.23 61.24-29.8 61.24-28.8L61.24-28.8ZM89.54-15.25L89.54-15.25 89.54-10.15 85.54-10.15 85.54-15.05Q85.54-17.85 83.97-19.15 82.39-20.45 79.74-20.45L79.74-20.45Q77.74-20.45 76.19-19.95 74.64-19.45 73.54-18.8L73.54-18.8 73.54-10.15 69.54-10.15 69.54-18.6Q69.54-19.65 69.97-20.33 70.39-21 71.44-21.65L71.44-21.65Q72.74-22.4 74.89-23.08 77.04-23.75 79.74-23.75L79.74-23.75Q84.29-23.75 86.92-21.68 89.54-19.6 89.54-15.25ZM69.54-1.55L69.54-12.9 73.54-12.9 73.54-0.1Q73.29 0 72.79 0.13 72.29 0.25 71.69 0.25L71.69 0.25Q70.64 0.25 70.09-0.18 69.54-0.6 69.54-1.55L69.54-1.55ZM85.54-1.55L85.54-12.9 89.54-12.9 89.54-0.1Q89.29 0 88.77 0.13 88.24 0.25 87.69 0.25L87.69 0.25Q86.59 0.25 86.07-0.18 85.54-0.6 85.54-1.55L85.54-1.55ZM97.09-6.05L97.09-13.2 101.09-13.2 101.09-6.3Q101.09-4.3 102.24-3.48 103.39-2.65 105.39-2.65L105.39-2.65Q106.24-2.65 107.29-2.95 108.34-3.25 109.04-3.65L109.04-3.65Q109.34-3.35 109.59-2.9 109.84-2.45 109.84-1.85L109.84-1.85Q109.84-0.75 108.54-0.05 107.24 0.65 104.94 0.65L104.94 0.65Q101.44 0.65 99.26-0.9 97.09-2.45 97.09-6.05L97.09-6.05ZM108.24-19.3L99.14-19.3 99.14-22.6 109.29-22.6Q109.44-22.4 109.59-21.95 109.74-21.5 109.74-21L109.74-21Q109.74-20.2 109.34-19.75 108.94-19.3 108.24-19.3L108.24-19.3ZM101.09-28.35L101.09-11.7 97.09-11.7 97.09-29.8Q97.34-29.9 97.86-30.03 98.39-30.15 98.99-30.15L98.99-30.15Q100.04-30.15 100.56-29.73 101.09-29.3 101.09-28.35L101.09-28.35ZM133.89-11.35L117.09-9 116.89-12.15 131.99-14.2Q131.79-16.95 130.09-18.73 128.39-20.5 125.39-20.5L125.39-20.5Q122.29-20.5 120.26-18.28 118.24-16.05 118.24-11.9L118.24-11.9 118.24-10.8Q118.59-6.8 120.86-4.73 123.14-2.65 127.09-2.65L127.09-2.65Q129.19-2.65 130.89-3.35 132.59-4.05 133.59-4.85L133.59-4.85Q134.14-4.5 134.46-4.03 134.79-3.55 134.79-2.95L134.79-2.95Q134.79-2 133.71-1.18 132.64-0.35 130.86 0.15 129.09 0.65 126.89 0.65L126.89 0.65Q123.04 0.65 120.21-0.75 117.39-2.15 115.86-4.93 114.34-7.7 114.34-11.7L114.34-11.7Q114.34-14.55 115.16-16.78 115.99-19 117.46-20.55 118.94-22.1 120.99-22.93 123.04-23.75 125.44-23.75L125.44-23.75Q128.49-23.75 130.81-22.45 133.14-21.15 134.46-18.82 135.79-16.5 135.79-13.5L135.79-13.5Q135.79-12.4 135.29-11.93 134.79-11.45 133.89-11.35L133.89-11.35ZM145.58-18.8L145.58-18.8 145.58-10.9 141.58-10.9 141.58-18.5Q141.58-19.65 142.01-20.33 142.43-21 143.43-21.65L143.43-21.65Q144.73-22.5 146.98-23.13 149.23-23.75 151.98-23.75L151.98-23.75Q155.98-23.75 155.98-21.75L155.98-21.75Q155.98-21.25 155.83-20.83 155.68-20.4 155.43-20.1L155.43-20.1Q154.93-20.2 154.13-20.3 153.33-20.4 152.53-20.4L152.53-20.4Q150.23-20.4 148.48-19.93 146.73-19.45 145.58-18.8ZM141.58-1.55L141.58-13.2 145.58-12.6 145.58-0.1Q145.33 0 144.83 0.13 144.33 0.25 143.73 0.25L143.73 0.25Q142.68 0.25 142.13-0.18 141.58-0.6 141.58-1.55L141.58-1.55ZM177.98-23.55L177.98-23.55Q178.83-23.55 179.36-23.1 179.88-22.65 179.88-21.8L179.88-21.8Q179.88-21.15 179.33-19.35 178.78-17.55 177.88-15.05 176.98-12.55 175.91-9.83 174.83-7.1 173.71-4.58 172.58-2.05 171.63-0.2L171.63-0.2Q171.38 0 170.76 0.15 170.13 0.3 169.43 0.3L169.43 0.3Q168.58 0.3 167.93 0.03 167.28-0.25 167.03-0.75L167.03-0.75Q166.48-1.75 165.61-3.68 164.73-5.6 163.73-8.05 162.73-10.5 161.71-13.13 160.68-15.75 159.83-18.18 158.98-20.6 158.43-22.45L158.43-22.45Q158.78-22.95 159.38-23.25 159.98-23.55 160.58-23.55L160.58-23.55Q161.48-23.55 161.98-23.1 162.48-22.65 162.83-21.6L162.83-21.6 165.93-12.65Q166.33-11.5 166.98-9.8 167.63-8.1 168.28-6.4 168.93-4.7 169.33-3.55L169.33-3.55 169.53-3.55Q171.53-8.6 173.28-13.53 175.03-18.45 176.28-23.15L176.28-23.15Q176.93-23.55 177.98-23.55ZM185.08-30.4L185.08-30.4Q185.08-31.45 185.83-32.18 186.58-32.9 187.68-32.9L187.68-32.9Q188.83-32.9 189.53-32.18 190.23-31.45 190.23-30.4L190.23-30.4Q190.23-29.35 189.53-28.63 188.83-27.9 187.68-27.9L187.68-27.9Q186.58-27.9 185.83-28.63 185.08-29.35 185.08-30.4ZM185.68-1.55L185.68-13.2 189.68-13.2 189.68-0.1Q189.43 0 188.93 0.13 188.43 0.25 187.83 0.25L187.83 0.25Q186.78 0.25 186.23-0.18 185.68-0.6 185.68-1.55L185.68-1.55ZM189.68-21.5L189.68-11.25 185.68-11.25 185.68-23Q185.93-23.1 186.45-23.23 186.98-23.35 187.58-23.35L187.58-23.35Q188.63-23.35 189.15-22.93 189.68-22.5 189.68-21.5L189.68-21.5ZM215.73-11.35L198.93-9 198.73-12.15 213.83-14.2Q213.63-16.95 211.93-18.73 210.23-20.5 207.23-20.5L207.23-20.5Q204.13-20.5 202.1-18.28 200.08-16.05 200.08-11.9L200.08-11.9 200.08-10.8Q200.43-6.8 202.7-4.73 204.98-2.65 208.93-2.65L208.93-2.65Q211.03-2.65 212.73-3.35 214.43-4.05 215.43-4.85L215.43-4.85Q215.98-4.5 216.3-4.03 216.63-3.55 216.63-2.95L216.63-2.95Q216.63-2 215.55-1.18 214.48-0.35 212.7 0.15 210.93 0.65 208.73 0.65L208.73 0.65Q204.88 0.65 202.05-0.75 199.23-2.15 197.7-4.93 196.18-7.7 196.18-11.7L196.18-11.7Q196.18-14.55 197-16.78 197.83-19 199.3-20.55 200.78-22.1 202.83-22.93 204.88-23.75 207.28-23.75L207.28-23.75Q210.33-23.75 212.65-22.45 214.98-21.15 216.3-18.82 217.63-16.5 217.63-13.5L217.63-13.5Q217.63-12.4 217.13-11.93 216.63-11.45 215.73-11.35L215.73-11.35ZM237.97-17.2L237.97-17.2Q237.07-14.05 236.05-10.9 235.02-7.75 234.07-5 233.12-2.25 232.32-0.25L232.32-0.25Q231.92 0 231.42 0.15 230.92 0.3 230.07 0.3L230.07 0.3Q229.27 0.3 228.6 0.03 227.92-0.25 227.67-0.85L227.67-0.85Q227.17-1.85 226.55-3.75 225.92-5.65 225.25-8.1 224.57-10.55 223.87-13.18 223.17-15.8 222.6-18.25 222.02-20.7 221.62-22.6L221.62-22.6Q221.97-22.95 222.5-23.25 223.02-23.55 223.77-23.55L223.77-23.55Q224.72-23.55 225.2-23.03 225.67-22.5 225.87-21.35L225.87-21.35Q226.32-19.25 226.9-16.6 227.47-13.95 228.1-11.35 228.72-8.75 229.25-6.68 229.77-4.6 230.02-3.6L230.02-3.6 230.22-3.6Q230.62-4.8 231.47-7.53 232.32-10.25 233.5-13.75 234.67-17.25 235.87-20.85L235.87-20.85Q236.27-21.1 236.82-21.23 237.37-21.35 238.02-21.35L238.02-21.35Q238.92-21.35 239.52-21.03 240.12-20.7 240.32-20.05L240.32-20.05Q241.52-16.6 242.57-13.28 243.62-9.95 244.42-7.38 245.22-4.8 245.57-3.55L245.57-3.55 245.82-3.55Q246.97-8 248.32-13.1 249.67-18.2 250.52-23.1L250.52-23.1Q251.22-23.55 252.22-23.55L252.22-23.55Q253.07-23.55 253.57-23.15 254.07-22.75 254.07-21.9L254.07-21.9Q254.07-21.35 253.75-19.8 253.42-18.25 252.87-16.15 252.32-14.05 251.65-11.68 250.97-9.3 250.27-7.08 249.57-4.85 248.95-3.05 248.32-1.25 247.87-0.25L247.87-0.25Q247.62-0.05 247.05 0.13 246.47 0.3 245.72 0.3L245.72 0.3Q243.67 0.3 243.32-0.65L243.32-0.65Q242.62-2.45 241.72-5.13 240.82-7.8 239.87-10.93 238.92-14.05 237.97-17.2Z" opacity="1" transform="matrix(1,0,0,1,0,0)" fill="#1e82d6" class="wordmark-text-0" data-fill-palette-color="primary" id="text-0"></path></svg></g></svg></g></svg></g></svg></g><g transform="matrix(1,0,0,1,143.2258937157784,0)"><svg viewBox="0 0 111.04581256844315 72.59984114014252" height="72.59984114014252" width="111.04581256844315"><g><svg xmlns="http://www.w3.org/2000/svg" xmlns:xlink="http://www.w3.org/1999/xlink" version="1.1" x="0" y="0" viewBox="0.2638066044185939 20.599999999999998 99.57435560018719 65.10000000000001" enable-background="new 0 0 100 86.1" xml:space="preserve" height="72.59984114014252" width="111.04581256844315" class="icon-icon-0" data-fill-palette-color="accent" id="icon-0"><g fill="#1e7fd6" data-fill-palette-color="accent"><circle cx="84.6" cy="29.5" r="5.8" fill="#1e7fd6" data-fill-palette-color="accent"></circle><circle cx="26.3" cy="26.4" r="5.8" fill="#1e7fd6" data-fill-palette-color="accent"></circle><g fill="#1e7fd6" data-fill-palette-color="accent"><path d="M49.6 34.1C49.1 35.2 49.5 36.4 50.6 37.1 51.6 37.7 52.9 37.4 53.6 36.5z" fill="#1e7fd6" data-fill-palette-color="accent"></path><polygon points="57.1,31.3 58.8,26.8 55.6,25 52.5,28.7 46.4,30.9 57.9,37.6   " fill="#1e7fd6" data-fill-palette-color="accent"></polygon></g><path d="M96.4 40.2C94.2 39.9 92.2 41.5 91.9 43.7L89.3 62.4H88.9V42.4C88.9 40.1 87 38.2 84.7 38.2S80.5 40.1 80.5 42.4V58.4L70.2 59.1C68 59.2 66.3 61 66.3 63.2L66.1 80.6H62.4V56.8H66.3V50.9H59.8L69 41.7C69.3 41.4 69.3 40.9 69 40.6L59.2 30.8C58.9 30.5 58.4 30.5 58.1 30.8S57.8 31.6 58.1 31.9L67.4 41.2 57.6 51H29.9V56.9H33.8V80.7H30.9C30.9 80.6 30.9 80.4 30.8 80.3L27.6 62.7C27.3 60.9 25.8 59.5 24 59.3L20.1 58.9 24.3 43 27.4 47.5C28 48.3 28.9 48.8 29.9 48.8H39.4C41 48.8 42.4 47.5 42.4 45.8 42.4 44.2 41.1 42.8 39.4 42.8H31.5L25.7 34.1C25.5 33.8 25.4 33.5 25.1 33.3 24.5 32.5 23.7 32 22.7 32 20.6 31.6 18.5 32.9 18 35L10.9 61.1C10.9 61.2 10.8 61.4 10.8 61.5L8.3 43.5C8 41.3 6 39.7 3.8 40S0 42.3 0.3 44.5L3.4 66.6C3.5 67.5 3.9 68.2 4.5 68.8 5.2 69.6 6.3 70.2 7.5 70.2H13.2V80.4H5.4V85.7H94.3V80.4H86.6V70.4H91.8C92.1 70.4 92.4 70.4 92.7 70.3 94.7 70.3 96.4 68.8 96.7 66.8L99.8 44.7C100.1 42.5 98.6 40.4 96.4 40.2M17.2 70.4H20.6L22.4 80.6H17.1V70.4zM74.4 80.6L74.5 70.4H82.5V80.6z" fill="#1e7fd6" data-fill-palette-color="accent"></path></g></svg></g></svg></g><g></g></svg></g><defs></defs></svg><rect width="395.52" height="164.7873361358392" fill="none" stroke="none" visibility="hidden"></rect></g></svg></g></svg>